<?xml version="1.0" encoding="utf-8"?>
<!-- Generator: Adobe Illustrator 26.5.0, SVG Export Plug-In . SVG Version: 6.00 Build 0)  -->
<svg version="1.1" id="Layer_1" xmlns="http://www.w3.org/2000/svg" xmlns:xlink="http://www.w3.org/1999/xlink" x="0px" y="0px"
	 viewBox="0 0 612 450.2" style="enable-background:new 0 0 612 450.2;" xml:space="preserve">
<style type="text/css">
	.st0{fill-rule:evenodd;clip-rule:evenodd;fill:#FFFFFF;}
	.st1{filter:url(#Adobe_OpacityMaskFilter);}
	.st2{mask:url(#b_00000173128084319326752030000015149436757365877921_);fill-rule:evenodd;clip-rule:evenodd;fill:#FFFFFF;}
	.st3{fill:#FFFFFF;}
</style>
<g>
	<g>
		<path class="st0" d="M0.4,81.2c2.5-4,20.6-7.2,36-9.9c0,0,24.5-3.7,26.6-3.9c2.3-0.2,10.4-1.8,11.2,4.3c1,7.4-5.8,7.1-10.5,11
			c-3.8,3.1-6.3,18.8-7.9,128.4c-1.8,115.6-1.8,122.6,3.7,128.4c8.7,8.1,21.8,2.3,24,4.1c2.2,1.8,2.7,7.5,1.2,9.4
			c-1.5,1.8-8-0.2-38.6,4.7c-17.5,2.8-32,12.3-35,10.4c-1.3-0.8-2.4-3-2.2-7.2c0.1-2.7,9.5-5.9,14-15.7c2.1-4.7,4.7-37.9,4.1-133.7
			c-0.6-95.7,1.2-124.8-0.6-125.4C24.5,85.6,4,92.8,1.4,90.7C-0.9,89,0.4,81.2,0.4,81.2"/>
		<path class="st0" d="M73.9,208.7c0,0,19.7-19.5,59.3-69.6c39.5-50.3,46.9-62.1,56.2-70.6c1.7-1.5,7.3-0.6,11.1-0.6
			c3.9-0.1,9-0.3,9.9,1.6c2,4.2-11.9,25.2-51,71.9c-33.7,40.4-36,40.2-52.5,59.1c5.8,9.2,12.4,24,49.5,76.6
			c37.2,52.5,55.7,64.2,64.2,70.5c8.4,6.3,17.9,8.3,17.4,13c-0.5,4-10.5,2.7-14,2.7c-3.4,0-25.2-1.6-37.8-9.9
			c-12.6-8.3-28.7-22.1-58.8-64.8C97.6,246.1,73.9,208.7,73.9,208.7"/>
		<path class="st0" d="M218.3,199.1c10.5,26.7,21.2,53.6,21.2,53.6s46.1-89.7,53.6-106.3c1.1-2.4,2.6-3.1,3.6-3
			c2.5,0.3,2.8,0.9,3.3,13.2c0.5,13-0.7,19.2-2.4,22.2c-9.6,17.7-79,139.9-80.9,142.8c-2,2.9-2.8,3.6-3.7,4.3
			c-0.9,0.8-8.2,2.5-9.9,0.2c-1.6-2.4,2.1-6.8,3.3-9.2c1.2-2.6,17.8-31.6,17.8-37.8c0-10-14.1-36.6-38.6-95.6
			c-2.3-5.7-5.6-11.6-10.5-13c-6.5-1.9-12.1,3.9-14.9,3.4c-2.8-0.6-4.2-5.2-3.8-6.9c0.3-1.7,9.3-4.8,19.5-9.8
			c10.3-5,18.3-10,20.8-9.9C198.5,147.3,208.2,173.2,218.3,199.1 M326.3,273.4c-14.5,0-17.3-11.4-17.3-16.6c0-31.9,53.5-41,53.5-41
			S366.4,273.4,326.3,273.4 M410.9,278.4c-0.6-1.5-1.9-2.4-3-2.4c-21.3,0-24.8-22.3-24.8-34.8c0-12.6,1.7-43.4,1-52.8
			c-0.6-9.4-1.7-25-9.1-31.6c-7.4-6.7-15.9-7.6-29.3-7.6c-13.5,0-23.3,2.2-28.7,7.6c-5.5,5.4-5.5,16.8-4.1,18.2
			c2.3,2.4,28.2-13,40.6-0.3c12.7,13.2,8.8,32.5,8.8,32.5s-78.3,11.4-78.3,59.5c0,5.3,2.2,24.4,25.3,24.4
			c30.7,0,51.2-27.5,51.2-27.5s1.1,27.1,24.2,27.1c18.5,0,25.9-8.5,26.3-9.2C411.5,280.6,411.5,280,410.9,278.4 M327.9,108.6
			c0,5.2-3.6,9.5-7.9,9.5c-4.5,0-8.1-4.2-8.1-9.5c0-5.2,3.6-9.4,8.1-9.4C324.3,99.1,327.9,103.4,327.9,108.6 M372,106.9
			c0,5.3-3.7,9.6-8.3,9.6c-4.7,0-8.4-4.4-8.4-9.6c0-5.3,3.7-9.6,8.4-9.6C368.3,97.3,372,101.6,372,106.9 M437.2,171.9
			c2.9-2.6,30-20.9,51.2-20.9c21.1,0,29.5,17.5,29.5,66.3c0,30.7-1.4,37.3-1.4,47c0,5.8,3,5.8,5.4,5.8c2.3,0,8-3,9.7-3
			c1.8,0,2.8,3,2.8,5.3c0,4.8-9.6,5.9-19.9,10.3c-9.7,4.2-18.9,11-21.3,11c-2,0-3.2-2.9-3.2-3.8c0-1.3,6.4-18.7,6.4-58.8
			c0-40-7.8-62-30-62c-15.7,0-27.4,14.5-27.4,14.5s0.1,17.4,0.1,35.9c0,18.4,0.2,61.9-1.5,65c-1.2,2.1-3.3,1.8-8.1,3.6
			c-4.8,1.8-11.6,5.7-11.7,0.8c-2.3-58.8,7.7-118.3-17.5-118.3c-2.6,0-3.4,1.1-5.7,1.1c-2.1,0-3.4-2.7-3.4-4.7c0-3,6.2-4.1,15-8.7
			c8.9-4.7,13.2-9.4,14.9-9.4C428.8,148.9,436.7,169,437.2,171.9 M570.9,283.8c2.3-4.9,1-35.6,1-98.9c0-11,1.6-26.2,1.6-31.2
			c0-2-3.6-5-5.1-5s-11.4,4.9-16.5,7.4c-7.4,3.6-23.7,6-23.7,10.7c0,4.8,2.6,6.2,3.4,5.9c2.1-0.3,4.4-2.8,8.3-2.2
			c11.8,1.7,9,7.8,9,107.8c0,10.6,0.6,13.6,1.8,14.4c1.3,0.7,7.8-2.4,11-3.8C565,287.7,569.3,287.1,570.9,283.8"/>
		<g transform="translate(63.885 .033)">
			<defs>
				<filter id="Adobe_OpacityMaskFilter" filterUnits="userSpaceOnUse" x="427.6" y="0" width="120.6" height="124.2">
					<feColorMatrix  type="matrix" values="1 0 0 0 0  0 1 0 0 0  0 0 1 0 0  0 0 0 1 0"/>
				</filter>
			</defs>
			
				<mask maskUnits="userSpaceOnUse" x="427.6" y="0" width="120.6" height="124.2" id="b_00000173128084319326752030000015149436757365877921_">
				<g class="st1">
					<path id="a_00000121281145619686936480000017989198133679536054_" class="st0" d="M427.5,0h120.6v124.2H427.5V0z"/>
				</g>
			</mask>
			<path class="st2" d="M477.7,51.1c-15.3,22-32.5,28.5-43.4,26.7c-1.3-4.8-2-9.7-2-14.7c0-30.9,25.3-55.9,56.7-55.9
				c21,0,38.5,11.5,48.3,28.2C534.6,31.4,509.9,4.6,477.7,51.1 M517.4,8c-8.9-5.2-19.1-8-29.5-8c-21.1,0-41.5,11.4-52.6,31.7
				c-16,29.2-6.5,66.1,21,83.5c3.8-0.6,7.9-3.5,11.2-10.4c11.1-23.9,35-33.2,59.2-16.9c0.9,0.8,2,1.6,3.1,2.7
				c-11.7,0.6-17.8,14.8-17.8,14.8c0,0.1-0.9,1.6-1.3,2.4c-4.2,7.1-10.1,13.1-16.9,16.6c18.9-1.9,36.7-13,46.7-31.4
				C556.7,62.8,546.4,24.8,517.4,8"/>
		</g>
		<path class="st0" d="M547.9,103c-11.2,19.5-25.8,26.4-43.4,15.7c0.2,0.3,30,22.9,48.7-8.6c14.4-24.5,29.5-20.8,29.5-20.8
			s-3.3-0.8-7.8-0.8C567,88.5,555,90.8,547.9,103 M599.4,159.3h1.9c1.5,0,3-0.1,3-1.9c0-1.6-1.4-1.8-2.6-1.8h-2.4L599.4,159.3z
			 M597.9,154.1h4.1c2.6,0,3.9,1,3.9,3.3c0,2.1-1.3,3-3,3.2l3.3,5.1h-1.8l-3-5h-2v5h-1.6V154.1z M601.5,168.4c4.6,0,8.2-3.7,8.2-8.7
			c0-4.8-3.7-8.5-8.2-8.5c-4.6,0-8.2,3.7-8.2,8.6S596.9,168.4,601.5,168.4z M601.5,149.8c5.3,0,9.7,4.3,9.7,9.9
			c0,5.8-4.4,10.2-9.7,10.2c-5.4,0-9.8-4.3-9.8-10C591.7,154.1,596.1,149.8,601.5,149.8z"/>
	</g>
</g>
<g>
	<g>
		<path class="st3" d="M35.6,428.1L35,425h-0.2c-1.1,1.4-2.2,2.4-3.3,2.8c-1.1,0.5-2.5,0.7-4.2,0.7c-2.2,0-4-0.6-5.2-1.7
			c-1.3-1.1-1.9-2.8-1.9-4.9c0-4.5,3.6-6.9,10.8-7.1l3.8-0.1v-1.4c0-1.8-0.4-3.1-1.1-3.9c-0.8-0.8-2-1.3-3.6-1.3
			c-1.9,0-4,0.6-6.3,1.7l-1-2.6c1.1-0.6,2.3-1.1,3.6-1.4c1.3-0.3,2.6-0.5,4-0.5c2.7,0,4.6,0.6,5.9,1.8c1.3,1.2,1.9,3.1,1.9,5.7v15.3
			H35.6z M28,425.8c2.1,0,3.8-0.6,5-1.7c1.2-1.2,1.8-2.8,1.8-4.9v-2l-3.4,0.1c-2.7,0.1-4.6,0.5-5.8,1.3c-1.2,0.7-1.8,1.9-1.8,3.5
			c0,1.2,0.4,2.2,1.1,2.8C25.6,425.4,26.7,425.8,28,425.8z"/>
		<path class="st3" d="M60.5,428.1v-14.5c0-1.8-0.4-3.2-1.2-4.1c-0.8-0.9-2.1-1.3-3.9-1.3c-2.3,0-4.1,0.6-5.1,1.9
			c-1.1,1.3-1.6,3.4-1.6,6.3v11.7h-3.4v-22.4h2.8l0.6,3.1h0.2c0.7-1.1,1.7-2,2.9-2.6c1.3-0.6,2.6-0.9,4.2-0.9c2.7,0,4.7,0.6,6.1,1.9
			c1.4,1.3,2,3.4,2,6.2v14.6H60.5z"/>
	</g>
	<g id="XMLID_00000117661105182763246160000009589464528783128192_">
		<g id="XMLID_00000143584175615062054250000017720839434878413464_">
			<path id="XMLID_00000155138096773824051520000016169171589461571986_" class="st3" d="M108.3,442.5c-2.9,0.5-5.7-1.4-6.2-4.3
				c-0.5-2.9,1.4-5.7,4.3-6.2l5.2-1l1,5.2C113.1,439.2,111.2,442,108.3,442.5 M119.7,433.6l-2.1-11.2l-7.4,1.4l0,0l-5.3,1
				c-7,1.3-11.6,8-10.3,15c1.3,7,8,11.6,15,10.3c4-0.7,7.2-3.3,9-6.7c0.6,0.7,1.3,1.3,1.8,1.5c3.1,1.5,5.7,0.2,6.8-1.5
				c1.2-2,0.8-4.3,0.8-4.3C123.6,440.2,120.8,439.4,119.7,433.6"/>
			<path id="XMLID_00000150100634661677754610000002739195717882464944_" class="st3" d="M143.1,442.4c-2.9-0.4-5-3.1-4.6-6l0.7-5.3
				l5.3,0.7c2.9,0.4,5,3.1,4.6,6C148.7,440.8,146,442.8,143.1,442.4 M155.6,420c-1.5-1.8-3.9-2.1-3.9-2.1c-0.1,4.7-1.8,7-7.7,6.3
				l-11.3-1.5l-1,7.5h0l-0.7,5.3c-0.9,7,4,13.5,11.1,14.4c7,0.9,13.5-4,14.4-11.1c0.5-4.1-0.9-7.9-3.6-10.6c0.8-0.4,1.6-0.8,2-1.3
				C157.3,424.5,156.9,421.6,155.6,420"/>
			<path id="XMLID_00000084529831725339064710000016628076079350053292_" class="st3" d="M159.7,404.8c-1.3,2.7-4.5,3.8-7.1,2.5
				l-4.8-2.3l2.3-4.8c1.3-2.7,4.5-3.8,7.1-2.5C159.8,398.9,161,402.1,159.7,404.8 M160.4,390.9c-3.7-1.8-7.8-1.6-11.2,0.1
				c-0.1-0.9-0.3-1.8-0.6-2.3c-1.6-3-4.5-3.5-6.4-2.7c-2.2,0.9-3.2,3-3.2,3c4.4,1.6,6.1,3.9,3.6,9.2l-4.9,10.3l6.8,3.2v0l4.8,2.3
				c6.4,3.1,14.1,0.3,17.1-6.1C169.6,401.6,166.8,393.9,160.4,390.9"/>
			<path id="XMLID_00000129189572712744477610000001290392195034974342_" class="st3" d="M121.5,377.5c2-2.1,5.4-2.2,7.5-0.2
				c2.1,2,2.2,5.4,0.2,7.5l-3.7,3.9l-3.9-3.7C119.5,383,119.4,379.6,121.5,377.5 M117.5,391.5l8.3,7.9l5.2-5.5h0l3.7-3.9
				c4.9-5.1,4.7-13.3-0.5-18.2c-5.1-4.9-13.3-4.7-18.2,0.5c-2.8,3-3.9,6.9-3.3,10.7c-0.9-0.2-1.8-0.3-2.4-0.2
				c-3.4,0.6-4.7,3.2-4.6,5.2c0.1,2.3,1.9,3.9,1.9,3.9C110.5,388.4,113.2,387.4,117.5,391.5"/>
			<path id="XMLID_00000151526144143708118190000001182909783715247771_" class="st3" d="M91.3,405.2c-1.4-2.6-0.4-5.8,2.1-7.2
				c2.6-1.4,5.8-0.4,7.2,2.1l2.5,4.7l-4.7,2.5C95.9,408.8,92.7,407.8,91.3,405.2 M96.5,423.5c2.2,0.6,4.4-0.6,4.4-0.6
				c-2.6-3.9-2.7-6.7,2.5-9.6l10-5.4l-3.6-6.6h0l-2.5-4.7c-3.4-6.2-11.2-8.6-17.4-5.2c-6.2,3.4-8.6,11.2-5.2,17.4
				c2,3.6,5.4,5.8,9.1,6.5c-0.5,0.8-0.8,1.6-0.9,2.2C92.4,420.9,94.5,423,96.5,423.5"/>
		</g>
		<g>
			<path id="XMLID_00000171691527959272222170000009427857060471947939_" class="st3" d="M122,407.5c-1.1,0.6-2.5,0.2-3.1-0.9
				c-0.6-1.1-0.2-2.5,0.9-3.1c1.1-0.6,2.5-0.2,3.1,0.9C123.5,405.6,123.1,406.9,122,407.5"/>
			<path id="XMLID_00000048482973651517062010000013296180757521574030_" class="st3" d="M120,414.1c0.2,1.2-0.6,2.4-1.8,2.6
				c-1.2,0.2-2.4-0.6-2.6-1.8c-0.2-1.2,0.6-2.4,1.8-2.6C118.6,412,119.8,412.8,120,414.1"/>
			<path id="XMLID_00000172438492691256527020000005145719172629301656_" class="st3" d="M125.6,418c1.2,0.2,2.1,1.3,1.9,2.6
				c-0.2,1.2-1.3,2.1-2.6,1.9c-1.2-0.2-2.1-1.3-1.9-2.6C123.3,418.7,124.4,417.8,125.6,418"/>
			<path id="XMLID_00000128478823006578570380000012843899086483035264_" class="st3" d="M131.1,413.8c0.6-1.1,1.9-1.6,3-1
				c1.1,0.6,1.6,1.9,1,3c-0.6,1.1-1.9,1.6-3,1C131,416.3,130.6,415,131.1,413.8"/>
			<path id="XMLID_00000156584534969362871790000017892113755909959844_" class="st3" d="M128.8,407.4c-0.9-0.9-0.9-2.3,0-3.2
				c0.9-0.9,2.3-0.9,3.2,0c0.9,0.9,0.9,2.3,0,3.2C131.2,408.2,129.7,408.2,128.8,407.4"/>
		</g>
		<g>
			<path id="XMLID_00000037653043606499533610000011076244175071713930_" class="st3" d="M205.9,414.2c-0.4-0.1-0.9-0.1-1.5-0.2
				c-0.5-0.1-1-0.1-1.4-0.1c-1.8,0-3.3,0.3-4.3,1c-1.1,0.7-1.6,1.7-1.6,3.2c0,1,0.2,1.7,0.6,2.2c0.4,0.5,0.9,0.9,1.5,1.2
				c0.6,0.2,1.2,0.4,1.8,0.4c0.7,0.1,1.2,0.1,1.7,0.1c0.6,0,1.1,0,1.7-0.1c0.6-0.1,1-0.2,1.5-0.2V414.2z M205.9,408.4
				c0-0.9-0.1-1.6-0.4-2.2c-0.3-0.6-0.7-1-1.2-1.3c-0.5-0.3-1.2-0.5-1.9-0.6c-0.8-0.1-1.6-0.2-2.6-0.2c-2,0-4.2,0.4-6.4,1.2
				c-0.5-1-0.9-1.9-1.2-2.8c-0.3-0.9-0.4-1.9-0.4-3.1c1.6-0.6,3.3-1,4.9-1.2c1.6-0.3,3.2-0.4,4.6-0.4c3.9,0,6.9,0.9,9.1,2.8
				c2.2,1.9,3.3,4.8,3.3,9v16.8c-1.3,0.4-2.9,0.8-4.8,1.2c-1.9,0.4-4,0.5-6.3,0.5c-1.9,0-3.7-0.2-5.2-0.5c-1.6-0.3-2.9-0.9-4.1-1.7
				c-1.1-0.8-2-1.8-2.6-3c-0.6-1.2-0.9-2.7-0.9-4.5c0-1.8,0.4-3.3,1.1-4.5c0.8-1.2,1.8-2.2,3-2.9c1.2-0.7,2.6-1.3,4.1-1.6
				c1.5-0.3,3-0.5,4.5-0.5c1.1,0,2.3,0.1,3.6,0.2V408.4z"/>
			<path id="XMLID_00000181787494305302630490000004724027860494482850_" class="st3" d="M221.8,398.5c0.5-0.1,1-0.2,1.6-0.3
				c0.5,0,1.1-0.1,1.7-0.1c0.6,0,1.2,0,1.7,0.1c0.5,0.1,1,0.1,1.5,0.3c0.1,0.2,0.2,0.5,0.3,0.8c0.1,0.4,0.2,0.7,0.3,1.1
				c0.1,0.4,0.1,0.8,0.2,1.1c0.1,0.4,0.1,0.7,0.1,0.9c0.3-0.5,0.7-1.1,1.2-1.7c0.5-0.6,1.1-1.1,1.7-1.5c0.7-0.5,1.4-0.8,2.3-1.1
				c0.8-0.3,1.8-0.4,2.8-0.4c4.5,0,7.4,1.7,8.7,5.2c0.7-1.4,1.8-2.6,3.2-3.6c1.4-1,3.1-1.5,5.2-1.5c3.3,0,5.7,0.9,7.3,2.7
				c1.6,1.8,2.3,4.6,2.3,8.5v18.4c-1.3,0.2-2.7,0.3-4,0.3c-1.3,0-2.6-0.1-4-0.3v-16.4c0-2-0.3-3.6-0.8-4.7c-0.5-1.1-1.5-1.6-3.1-1.6
				c-0.6,0-1.3,0.1-1.9,0.3c-0.6,0.2-1.2,0.5-1.7,1c-0.5,0.5-0.9,1.2-1.2,2.1c-0.3,0.9-0.5,2.1-0.5,3.6v15.6c-1.3,0.2-2.7,0.3-4,0.3
				c-1.3,0-2.6-0.1-4-0.3v-16.4c0-2-0.3-3.6-0.8-4.7c-0.5-1.1-1.5-1.6-3-1.6c-0.6,0-1.3,0.1-1.9,0.3c-0.6,0.2-1.2,0.5-1.7,1.1
				c-0.5,0.5-0.9,1.3-1.2,2.3c-0.3,1-0.5,2.2-0.5,3.8v15.2c-1.3,0.2-2.7,0.3-4,0.3c-1.3,0-2.6-0.1-4-0.3V398.5z"/>
			<path id="XMLID_00000130637413649990861760000009791779125689852561_" class="st3" d="M286.6,414.2c-0.4-0.1-0.9-0.1-1.5-0.2
				c-0.5-0.1-1-0.1-1.4-0.1c-1.8,0-3.3,0.3-4.3,1c-1.1,0.7-1.6,1.7-1.6,3.2c0,1,0.2,1.7,0.6,2.2c0.4,0.5,0.9,0.9,1.5,1.2
				c0.6,0.2,1.2,0.4,1.8,0.4c0.7,0.1,1.2,0.1,1.7,0.1c0.6,0,1.1,0,1.7-0.1c0.6-0.1,1-0.2,1.5-0.2V414.2z M286.6,408.4
				c0-0.9-0.1-1.6-0.4-2.2c-0.3-0.6-0.7-1-1.2-1.3c-0.5-0.3-1.2-0.5-1.9-0.6c-0.8-0.1-1.6-0.2-2.6-0.2c-2,0-4.2,0.4-6.4,1.2
				c-0.5-1-0.9-1.9-1.2-2.8c-0.3-0.9-0.4-1.9-0.4-3.1c1.6-0.6,3.3-1,4.9-1.2c1.6-0.3,3.2-0.4,4.6-0.4c3.9,0,6.9,0.9,9.1,2.8
				c2.2,1.9,3.3,4.8,3.3,9v16.8c-1.3,0.4-2.9,0.8-4.8,1.2c-1.9,0.4-4,0.5-6.3,0.5c-1.9,0-3.7-0.2-5.2-0.5c-1.6-0.3-2.9-0.9-4.1-1.7
				c-1.1-0.8-2-1.8-2.6-3c-0.6-1.2-0.9-2.7-0.9-4.5c0-1.8,0.4-3.3,1.1-4.5c0.8-1.2,1.8-2.2,3-2.9c1.2-0.7,2.6-1.3,4.1-1.6
				c1.5-0.3,3-0.5,4.5-0.5c1.1,0,2.3,0.1,3.6,0.2V408.4z"/>
			<path id="XMLID_00000139988533624722272860000006263271845721650879_" class="st3" d="M302.5,398.5c0.6-0.1,1.1-0.2,1.6-0.3
				c0.5,0,1.1-0.1,1.7-0.1c0.6,0,1.1,0,1.7,0.1c0.5,0.1,1.1,0.2,1.6,0.3c0.1,0.2,0.2,0.5,0.3,0.8c0.1,0.4,0.2,0.7,0.3,1.1
				c0.1,0.4,0.1,0.8,0.2,1.2c0.1,0.4,0.1,0.7,0.1,1c0.8-1.2,1.8-2.2,3-3.1c1.2-0.9,2.7-1.4,4.5-1.4c0.4,0,0.8,0,1.3,0.1
				c0.5,0,0.8,0.1,1.1,0.2c0.1,0.4,0.1,0.8,0.2,1.3c0,0.5,0.1,1,0.1,1.5c0,0.6,0,1.3-0.1,2.1c-0.1,0.7-0.2,1.5-0.3,2.1
				c-0.4-0.1-0.9-0.1-1.4-0.1h-0.9c-0.6,0-1.3,0.1-2.1,0.2c-0.8,0.1-1.5,0.5-2.2,1c-0.7,0.6-1.3,1.4-1.8,2.5
				c-0.5,1.1-0.7,2.7-0.7,4.7v13.8c-0.7,0.1-1.3,0.2-2,0.2c-0.7,0-1.3,0.1-2,0.1c-0.6,0-1.3,0-1.9-0.1c-0.6,0-1.3-0.1-2-0.2V398.5z"
				/>
			<path id="XMLID_00000025424570849441591150000004542120856125930662_" class="st3" d="M341.9,409.9c-0.1-1.8-0.6-3.2-1.5-4.3
				c-0.9-1.1-2.2-1.7-3.8-1.7c-1.9,0-3.3,0.5-4.3,1.6c-1,1.1-1.6,2.5-1.7,4.4H341.9z M330.5,415.4c0.1,2.2,0.9,3.9,2.3,4.9
				c1.4,1,3.3,1.5,5.6,1.5c1.3,0,2.6-0.1,3.9-0.4c1.3-0.2,2.6-0.6,3.8-1c0.4,0.7,0.8,1.6,1.1,2.7c0.3,1,0.5,2.2,0.5,3.4
				c-2.9,1.1-6.2,1.7-9.9,1.7c-2.7,0-5-0.4-6.9-1.1c-1.9-0.8-3.5-1.8-4.7-3.1c-1.2-1.3-2.1-2.9-2.7-4.7c-0.6-1.8-0.9-3.8-0.9-6
				c0-2.1,0.3-4.1,0.9-6c0.6-1.9,1.5-3.5,2.7-4.9c1.2-1.4,2.6-2.5,4.4-3.3c1.7-0.8,3.8-1.2,6.1-1.2c2,0,3.8,0.4,5.4,1.1
				c1.6,0.7,2.9,1.7,4,2.9c1.1,1.2,1.9,2.7,2.5,4.4c0.6,1.7,0.8,3.5,0.8,5.5c0,0.7,0,1.4-0.1,2.1c-0.1,0.7-0.1,1.2-0.2,1.7H330.5z"
				/>
			<g>
				<path class="st3" d="M358.8,407.5c-0.7,0-1.4-0.1-2-0.4c-0.6-0.3-1.1-0.6-1.6-1.1c-0.4-0.4-0.8-1-1-1.6c-0.2-0.6-0.4-1.3-0.4-2
					c0-0.7,0.1-1.4,0.4-2c0.2-0.6,0.6-1.2,1-1.6c0.4-0.4,1-0.8,1.6-1.1c0.6-0.3,1.3-0.4,2-0.4c0.7,0,1.4,0.1,2,0.4s1.1,0.6,1.6,1.1
					c0.4,0.5,0.8,1,1,1.6c0.2,0.6,0.4,1.3,0.4,2s-0.1,1.4-0.4,2c-0.2,0.6-0.6,1.1-1,1.6c-0.4,0.4-1,0.8-1.6,1.1
					C360.2,407.4,359.5,407.5,358.8,407.5z M358.8,406.6c0.6,0,1.2-0.1,1.7-0.3c0.5-0.2,0.9-0.5,1.3-0.9c0.3-0.4,0.6-0.8,0.8-1.3
					c0.2-0.5,0.3-1.1,0.3-1.6c0-0.6-0.1-1.1-0.3-1.6c-0.2-0.5-0.5-0.9-0.8-1.3c-0.3-0.4-0.8-0.7-1.3-0.9c-0.5-0.2-1.1-0.3-1.7-0.3
					c-0.6,0-1.2,0.1-1.7,0.3c-0.5,0.2-0.9,0.5-1.3,0.9c-0.3,0.4-0.6,0.8-0.8,1.3c-0.2,0.5-0.3,1-0.3,1.6c0,0.6,0.1,1.1,0.3,1.6
					c0.2,0.5,0.4,0.9,0.8,1.3c0.3,0.4,0.8,0.7,1.3,0.9C357.6,406.5,358.2,406.6,358.8,406.6z M357.1,399.8c0.2,0,0.5,0,0.7-0.1
					c0.2,0,0.5,0,0.7,0c0.3,0,0.6,0,0.9,0.1c0.3,0.1,0.5,0.2,0.7,0.3c0.2,0.1,0.3,0.3,0.5,0.5c0.1,0.2,0.2,0.5,0.2,0.7
					c0,0.4-0.1,0.7-0.3,1c-0.2,0.2-0.4,0.4-0.7,0.5l1.4,2.2c-0.1,0-0.2,0-0.3,0c-0.1,0-0.2,0-0.3,0c-0.2,0-0.4,0-0.5,0l-1.5-2.4
					l0.3-0.1c0.2-0.1,0.4-0.2,0.6-0.4c0.2-0.2,0.3-0.4,0.3-0.6c0-0.3-0.1-0.5-0.3-0.6c-0.2-0.1-0.4-0.2-0.7-0.2c-0.1,0-0.1,0-0.2,0
					c-0.1,0-0.2,0-0.3,0v4.4c-0.1,0-0.3,0-0.5,0c-0.2,0-0.4,0-0.5,0V399.8z"/>
			</g>
		</g>
	</g>
	<g>
		<path class="st3" d="M393.8,401c-3.3,0-5.9,1.1-7.8,3.3c-1.9,2.2-2.8,5.2-2.8,9c0,3.9,0.9,6.9,2.7,9.1c1.8,2.1,4.4,3.2,7.8,3.2
			c2.1,0,4.5-0.4,7.1-1.1v3c-2.1,0.8-4.6,1.2-7.7,1.2c-4.4,0-7.8-1.3-10.2-4c-2.4-2.7-3.6-6.5-3.6-11.4c0-3.1,0.6-5.8,1.7-8.1
			c1.2-2.3,2.8-4.1,5-5.4c2.2-1.3,4.7-1.9,7.7-1.9c3.1,0,5.9,0.6,8.2,1.7l-1.5,3C398.3,401.5,396.1,401,393.8,401z"/>
		<path class="st3" d="M426.2,416.9c0,3.6-0.9,6.5-2.8,8.5c-1.8,2-4.4,3.1-7.6,3.1c-2,0-3.8-0.5-5.3-1.4c-1.6-0.9-2.8-2.3-3.6-4
			c-0.8-1.8-1.3-3.8-1.3-6.2c0-3.6,0.9-6.5,2.7-8.5c1.8-2,4.4-3.1,7.6-3.1c3.1,0,5.6,1,7.5,3.1C425.3,410.6,426.2,413.4,426.2,416.9
			z M409.2,416.9c0,2.9,0.6,5,1.7,6.5c1.1,1.5,2.8,2.2,5,2.2c2.2,0,3.9-0.7,5.1-2.2c1.2-1.5,1.7-3.7,1.7-6.5c0-2.8-0.6-5-1.7-6.5
			c-1.2-1.5-2.8-2.2-5.1-2.2c-2.2,0-3.9,0.7-5,2.2C409.7,411.9,409.2,414.1,409.2,416.9z"/>
		<path class="st3" d="M460.7,428.2v-14.6c0-1.8-0.4-3.1-1.1-4c-0.8-0.9-1.9-1.3-3.6-1.3c-2.1,0-3.7,0.6-4.7,1.8
			c-1,1.2-1.5,3.1-1.5,5.6v12.5h-3.4v-14.6c0-1.8-0.4-3.1-1.1-4c-0.8-0.9-2-1.3-3.6-1.3c-2.1,0-3.7,0.6-4.7,1.9
			c-1,1.3-1.5,3.4-1.5,6.3v11.7h-3.4v-22.4h2.8l0.6,3.1h0.2c0.6-1.1,1.5-1.9,2.7-2.6s2.5-0.9,3.9-0.9c3.5,0,5.8,1.3,6.9,3.8h0.2
			c0.7-1.2,1.6-2.1,2.9-2.8c1.3-0.7,2.7-1,4.3-1c2.5,0,4.4,0.6,5.7,1.9c1.3,1.3,1.9,3.4,1.9,6.2v14.6H460.7z"/>
		<path class="st3" d="M481.5,428.6c-1.5,0-2.8-0.3-4-0.8c-1.2-0.5-2.2-1.4-3-2.5h-0.2c0.2,1.3,0.2,2.5,0.2,3.7v9.2h-3.4v-32.4h2.8
			l0.5,3.1h0.2c0.9-1.2,1.9-2.1,3-2.7s2.5-0.8,4-0.8c3,0,5.3,1,6.9,3c1.6,2,2.4,4.9,2.4,8.5c0,3.7-0.8,6.5-2.5,8.6
			C486.7,427.5,484.4,428.6,481.5,428.6z M481,408.2c-2.3,0-3.9,0.6-5,1.9c-1,1.3-1.5,3.3-1.6,6v0.8c0,3.1,0.5,5.4,1.6,6.7
			c1.1,1.4,2.7,2,5,2c1.9,0,3.4-0.8,4.5-2.3c1.1-1.6,1.6-3.7,1.6-6.5c0-2.8-0.6-4.9-1.6-6.4C484.5,409,483,408.2,481,408.2z"/>
		<path class="st3" d="M510.5,428.2l-0.7-3.2h-0.2c-1.1,1.4-2.2,2.4-3.3,2.8c-1.1,0.5-2.5,0.7-4.2,0.7c-2.2,0-4-0.6-5.2-1.7
			c-1.3-1.1-1.9-2.8-1.9-4.9c0-4.5,3.6-6.9,10.8-7.1l3.8-0.1v-1.4c0-1.8-0.4-3.1-1.1-3.9c-0.8-0.8-2-1.3-3.6-1.3
			c-1.9,0-4,0.6-6.3,1.7l-1-2.6c1.1-0.6,2.3-1.1,3.6-1.4c1.3-0.3,2.6-0.5,4-0.5c2.7,0,4.6,0.6,5.9,1.8c1.3,1.2,1.9,3.1,1.9,5.7v15.3
			H510.5z M502.8,425.8c2.1,0,3.8-0.6,5-1.7c1.2-1.2,1.8-2.8,1.8-4.9v-2l-3.4,0.1c-2.7,0.1-4.6,0.5-5.8,1.3
			c-1.2,0.7-1.8,1.9-1.8,3.5c0,1.2,0.4,2.2,1.1,2.8S501.5,425.8,502.8,425.8z"/>
		<path class="st3" d="M535.3,428.2v-14.5c0-1.8-0.4-3.2-1.2-4.1c-0.8-0.9-2.1-1.3-3.9-1.3c-2.3,0-4.1,0.6-5.1,1.9
			c-1.1,1.3-1.6,3.4-1.6,6.3v11.7H520v-22.4h2.8l0.6,3.1h0.2c0.7-1.1,1.7-2,2.9-2.6c1.3-0.6,2.6-0.9,4.2-0.9c2.7,0,4.7,0.6,6.1,1.9
			c1.4,1.3,2,3.4,2,6.2v14.6H535.3z"/>
		<path class="st3" d="M542.1,405.8h3.6l4.9,12.8c1.1,2.9,1.7,5,2,6.3h0.2c0.2-0.7,0.6-1.9,1.1-3.6c0.6-1.7,2.4-6.9,5.5-15.5h3.6
			l-9.6,25.5c-1,2.5-2.1,4.3-3.3,5.4c-1.3,1.1-2.8,1.6-4.7,1.6c-1,0-2.1-0.1-3.1-0.3v-2.7c0.7,0.2,1.6,0.2,2.5,0.2
			c2.3,0,4-1.3,5-3.9l1.3-3.2L542.1,405.8z"/>
	</g>
</g>
</svg>
