<svg xmlns="http://www.w3.org/2000/svg" width="28" height="28" viewBox="0 0 28 28">
    <g fill="none" fill-rule="evenodd">
        <g fill="#002855">
            <g>
                <g>
                    <path d="M14 2c6.627 0 12 5.373 12 12s-5.373 12-12 12S2 20.627 2 14 7.373 2 14 2zm0 .96C7.903 2.96 2.96 7.903 2.96 14c0 6.097 4.943 11.04 11.04 11.04 6.097 0 11.04-4.943 11.04-11.04 0-6.097-4.943-11.04-11.04-11.04zM15.758 9c.143.012.285.028.428.035 1.566.077 2.571 1.008 2.755 2.556l.032.321.027.321v3.534c-.012.142-.028.284-.035.427-.078 1.563-1.01 2.563-2.564 2.748l-.32.031-.323.027h-3.542c-.137-.012-.275-.026-.412-.035-.705-.047-1.36-.227-1.898-.715-.609-.55-.874-1.262-.888-2.052-.026-1.465-.022-2.931 0-4.396.009-.674.212-1.302.666-1.826.477-.55 1.096-.82 1.805-.91l.363-.036.364-.03h3.542zm-3.839.938c-1.29.039-1.953.716-2.008 2.004-.015.344-.03.688-.029 1.032.005 1.038 0 2.076.034 3.114.042 1.258.72 1.928 1.983 1.973.463.017.927.029 1.392.034l.696.005c.177-.002.355.003.533-.003.622-.019 1.248-.012 1.867-.069.856-.078 1.41-.576 1.596-1.377.048-.21.077-.428.08-.643.018-.993.031-1.987.03-2.98-.002-.477-.016-.956-.066-1.43-.095-.89-.621-1.462-1.505-1.602-.492-.077-.998-.085-1.498-.088-1.035-.004-2.07-.001-3.105.03zm2.102 1.415c1.456.004 2.628 1.191 2.626 2.66-.002 1.465-1.19 2.638-2.668 2.634-1.455-.004-2.628-1.191-2.626-2.66.002-1.465 1.19-2.638 2.668-2.634zm-.02.93c-.944 0-1.717.77-1.719 1.713-.002.95.776 1.726 1.726 1.722.943-.004 1.712-.78 1.71-1.722-.002-.943-.775-1.714-1.718-1.714zm2.633-1.518c.33-.007.596.248.601.577.005.329-.254.596-.581.6-.326.002-.594-.262-.595-.588-.001-.321.254-.583.575-.59z" transform="translate(-776 -301) translate(637 301) translate(139)"/>
                </g>
            </g>
        </g>
    </g>
</svg>
